PathFileType	4	(x/y/z)	S08_SL_Cal_T01
DataRate	CameraRate	NumFrames	NumMarkers	Units	OrigDataRate	OrigDataStartFrame	OrigNumFrames
240	240	10	51	mm	240	601	2400
Frame#	Time	Sternum			R.Acromium			L.Acromium			Top.Head			R.ASIS			L.ASIS			R.PSIS			L.PSIS			R.Great.Tro			L.Great.Tro			R.Iliac.Crest			L.Iliac.Crest			V.Sacral			R.Thigh.Upper.Post			R.Thigh.Lower.Ant			R.Thigh.Lower.Post			R.Thigh.Upper.Ant			R.Knee.Lat			R.Knee.Med			R.Shank.Upper.Post			R.Shank.Lower.Ant			R.Shank.Lower.Post			R.Shank.Upper.Ant			R.Ankle.Lat			R.Ankle.Med			R.Heel.Upper			R.Heel.Med			R.Heel.Lat			R.Toe.Lat			R.Toe.Med			R.Toe.Tip			L.Thigh.Upper.Post			L.Thigh.Lower.Ant			L.Thigh.Lower.Post			L.Thigh.Upper.Ant			L.Knee.Lat			L.Knee.Med			L.Shank.Upper.Post			L.Shank.Lower.Ant			L.Shank.Lower.Post			L.Shank.Upper.Ant			L.Ankle.Lat			L.Ankle.Med			L.Heel.Upper			L.Heel.Med			L.Heel.Lat			L.Toe.Lat			L.Toe.Med			L.Toe.Tip			Cervical.Spine			Back			
		X1	Y1	Z1	X2	Y2	Z2	X3	Y3	Z3	X4	Y4	Z4	X5	Y5	Z5	X6	Y6	Z6	X7	Y7	Z7	X8	Y8	Z8	X9	Y9	Z9	X10	Y10	Z10	X11	Y11	Z11	X12	Y12	Z12	X13	Y13	Z13	X14	Y14	Z14	X15	Y15	Z15	X16	Y16	Z16	X17	Y17	Z17	X18	Y18	Z18	X19	Y19	Z19	X20	Y20	Z20	X21	Y21	Z21	X22	Y22	Z22	X23	Y23	Z23	X24	Y24	Z24	X25	Y25	Z25	X26	Y26	Z26	X27	Y27	Z27	X28	Y28	Z28	X29	Y29	Z29	X30	Y30	Z30	X31	Y31	Z31	X32	Y32	Z32	X33	Y33	Z33	X34	Y34	Z34	X35	Y35	Z35	X36	Y36	Z36	X37	Y37	Z37	X38	Y38	Z38	X39	Y39	Z39	X40	Y40	Z40	X41	Y41	Z41	X42	Y42	Z42	X43	Y43	Z43	X44	Y44	Z44	X45	Y45	Z45	X46	Y46	Z46	X47	Y47	Z47	X48	Y48	Z48	X49	Y49	Z49	X50	Y50	Z50	X51	Y51	Z51	

601	2.5	563.64	1246.8	330.21	418.61	1481.8	497.84	412.74	1495.9	162.77	442.01	1805.6	344.18	534.55	1021.5	435	542.1	1025.9	201.75	338.19	1051.5	354.64	344.4	1059.6	261.84	452.74	924.55	502.05	438.04	928.59	136.19	438.78	1091.8	478.83	454.52	1110.6	175.77	321.89	1017.6	305.13	399.34	737.41	515.27	458.82	622.83	500.13	391.15	646.61	509.59	476.09	716.81	508.73	409.54	529.99	499.69	389.39	518.44	373.35	327.02	355.58	525.45	389.91	291.69	518.27	327.09	277.97	525.47	392.24	368.71	518.46	335.33	102.95	509.29	367.94	112.28	434.16	291.28	66.182	464.03	305.54	39.472	438.25	294.9	42.527	499.44	NaN	NaN	NaN	491.56	44.259	440.64	554.1	59.309	490.92	395.02	737.59	121.64	465.69	633.16	125.78	398.16	646.13	124.19	465.53	722.21	115.35	396.78	534.15	129.44	406.33	513.67	254.03	322.45	358.11	110.78	389.45	268.34	111.48	319.44	283.89	117.51	386.35	344.97	106.92	345.74	105.51	103.05	375.08	102.93	185.71	294.97	76.12	150.45	311.64	42.181	179.48	301.59	48.762	116.57	475.16	38.531	67.434	503	44.052	180.59	562.56	59.167	126.96	350.09	1524.4	321.48	328.91	1243	334.53
602	2.5042	563.66	1246.8	330.23	418.62	1481.8	497.85	412.75	1495.9	162.77	442.07	1805.6	344.17	534.55	1021.5	434.98	542.09	1025.9	201.74	338.18	1051.5	354.63	344.39	1059.6	261.84	452.73	924.55	502.03	438.03	928.6	136.17	438.79	1091.8	478.8	454.53	1110.6	175.77	321.88	1017.6	305.12	399.33	737.41	515.26	458.81	622.83	500.12	391.14	646.61	509.58	476.08	716.81	508.71	409.52	529.99	499.68	389.38	518.44	373.34	327.02	355.58	525.45	389.9	291.69	518.26	327.09	277.98	525.47	392.24	368.71	518.45	335.33	102.95	509.29	367.94	112.28	434.16	291.28	66.182	464.03	305.54	39.471	438.25	294.9	42.528	499.44	NaN	NaN	NaN	491.56	44.258	440.64	554.1	59.308	490.92	395.01	737.59	121.63	465.68	633.16	125.76	398.14	646.13	124.18	465.51	722.21	115.34	396.77	534.15	129.43	406.32	513.67	254.02	322.44	358.11	110.77	389.44	268.34	111.48	319.44	283.89	117.51	386.34	344.97	106.91	345.74	105.5	103.05	375.08	102.93	185.71	294.97	76.123	150.45	311.62	42.179	179.48	301.59	48.761	116.57	475.16	38.531	67.433	503	44.053	180.59	562.56	59.168	126.96	350.1	1524.4	321.48	328.91	1243	334.53
603	2.5083	563.67	1246.8	330.24	418.62	1481.8	497.86	412.77	1495.9	162.77	442.12	1805.6	344.17	534.55	1021.5	434.96	542.08	1025.9	201.73	338.18	1051.5	354.62	344.38	1059.6	261.83	452.72	924.55	502.02	438.01	928.61	136.16	438.8	1091.8	478.78	454.53	1110.6	175.77	321.87	1017.6	305.1	399.32	737.41	515.25	458.8	622.83	500.11	391.13	646.61	509.57	476.07	716.8	508.7	409.51	529.99	499.67	389.37	518.44	373.33	327.01	355.58	525.46	389.9	291.7	518.26	327.09	277.98	525.47	392.23	368.71	518.45	335.33	102.95	509.29	367.94	112.28	434.16	291.28	66.183	464.03	305.54	39.469	438.25	294.9	42.528	499.44	NaN	NaN	NaN	491.56	44.258	440.64	554.1	59.307	490.92	394.99	737.59	121.62	465.66	633.16	125.75	398.13	646.14	124.17	465.5	722.21	115.32	396.75	534.15	129.42	406.3	513.67	254.01	322.43	358.11	110.76	389.44	268.34	111.47	319.43	283.89	117.5	386.33	344.97	106.9	345.74	105.5	103.05	375.08	102.93	185.71	294.97	76.126	150.44	311.61	42.177	179.48	301.59	48.76	116.57	475.16	38.53	67.432	503	44.055	180.59	562.56	59.169	126.95	350.12	1524.5	321.48	328.91	1243	334.53
604	2.5125	563.69	1246.8	330.25	418.63	1481.8	497.86	412.78	1495.9	162.78	442.18	1805.6	344.16	534.55	1021.5	434.94	542.08	1025.9	201.71	338.17	1051.5	354.61	344.37	1059.6	261.82	452.72	924.54	502	437.99	928.62	136.14	438.81	1091.8	478.75	454.53	1110.6	175.77	321.86	1017.6	305.09	399.31	737.41	515.23	458.79	622.83	500.1	391.12	646.61	509.55	476.06	716.8	508.68	409.5	529.99	499.66	389.35	518.44	373.32	327.01	355.58	525.46	389.9	291.7	518.25	327.08	277.98	525.46	392.23	368.72	518.44	335.33	102.95	509.29	367.94	112.28	434.16	291.28	66.183	464.03	305.54	39.469	438.25	294.9	42.529	499.44	NaN	NaN	NaN	491.56	44.258	440.64	554.1	59.307	490.92	394.97	737.59	121.61	465.64	633.16	125.73	398.11	646.14	124.15	465.48	722.21	115.3	396.74	534.15	129.41	406.29	513.68	254	322.42	358.1	110.76	389.43	268.34	111.46	319.42	283.89	117.5	386.33	344.97	106.89	345.74	105.5	103.05	375.08	102.93	185.7	294.98	76.13	150.44	311.59	42.174	179.49	301.59	48.76	116.57	475.16	38.529	67.431	503	44.056	180.59	562.56	59.17	126.95	350.13	1524.5	321.49	328.92	1243	334.53
605	2.5167	563.7	1246.8	330.26	418.63	1481.8	497.87	412.79	1495.9	162.78	442.25	1805.6	344.16	534.55	1021.5	434.91	542.07	1025.9	201.7	338.17	1051.5	354.6	344.37	1059.6	261.8	452.71	924.54	501.98	437.98	928.62	136.13	438.81	1091.8	478.72	454.54	1110.6	175.76	321.85	1017.6	305.07	399.31	737.41	515.22	458.78	622.83	500.09	391.11	646.6	509.54	476.05	716.8	508.67	409.49	529.99	499.65	389.34	518.44	373.31	327	355.58	525.45	389.89	291.7	518.25	327.08	277.98	525.46	392.22	368.72	518.43	335.33	102.95	509.29	367.94	112.28	434.16	291.28	66.184	464.03	305.54	39.468	438.25	294.9	42.529	499.44	NaN	NaN	NaN	491.56	44.258	440.64	554.1	59.306	490.92	394.96	737.59	121.59	465.62	633.16	125.72	398.09	646.14	124.14	465.46	722.22	115.28	396.72	534.15	129.4	406.28	513.68	253.99	322.41	358.1	110.75	389.42	268.34	111.46	319.42	283.89	117.49	386.32	344.97	106.88	345.74	105.51	103.04	375.08	102.93	185.7	294.99	76.134	150.44	311.57	42.171	179.49	301.59	48.759	116.57	475.16	38.528	67.43	503	44.058	180.59	562.56	59.17	126.95	350.14	1524.5	321.49	328.92	1243	334.53
606	2.5208	563.72	1246.8	330.28	418.63	1481.8	497.87	412.8	1495.9	162.78	442.31	1805.6	344.15	534.55	1021.5	434.89	542.07	1025.9	201.69	338.16	1051.5	354.59	344.36	1059.6	261.79	452.71	924.54	501.97	437.96	928.63	136.11	438.82	1091.9	478.7	454.55	1110.6	175.76	321.85	1017.6	305.06	399.3	737.41	515.21	458.77	622.82	500.07	391.1	646.6	509.53	476.04	716.8	508.65	409.48	529.99	499.64	389.33	518.43	373.3	326.99	355.59	525.45	389.89	291.7	518.24	327.07	277.98	525.46	392.22	368.72	518.42	335.33	102.95	509.29	367.94	112.28	434.16	291.28	66.184	464.02	305.54	39.469	438.25	294.9	42.529	499.44	NaN	NaN	NaN	491.56	44.258	440.63	554.1	59.305	490.92	394.94	737.6	121.58	465.61	633.16	125.7	398.07	646.15	124.13	465.45	722.22	115.26	396.7	534.16	129.39	406.27	513.68	253.97	322.4	358.1	110.74	389.42	268.35	111.45	319.41	283.89	117.48	386.31	344.97	106.88	345.74	105.51	103.04	375.08	102.93	185.7	294.99	76.138	150.43	311.56	42.168	179.49	301.59	48.759	116.57	475.16	38.527	67.428	503	44.059	180.58	562.56	59.171	126.95	350.15	1524.5	321.49	328.93	1243	334.53
607	2.525	563.73	1246.8	330.29	418.64	1481.8	497.88	412.81	1495.9	162.78	442.37	1805.6	344.15	534.55	1021.5	434.87	542.06	1025.9	201.67	338.16	1051.5	354.58	344.36	1059.6	261.78	452.7	924.54	501.95	437.95	928.64	136.1	438.83	1091.9	478.67	454.55	1110.6	175.75	321.84	1017.6	305.04	399.29	737.41	515.19	458.76	622.82	500.06	391.09	646.6	509.51	476.03	716.8	508.64	409.47	529.99	499.63	389.32	518.43	373.29	326.99	355.59	525.45	389.88	291.7	518.24	327.07	277.98	525.45	392.21	368.72	518.41	335.33	102.95	509.29	367.94	112.28	434.16	291.28	66.185	464.02	305.54	39.469	438.25	294.9	42.528	499.44	NaN	NaN	NaN	491.56	44.258	440.63	554.1	59.304	490.92	394.93	737.6	121.57	465.59	633.16	125.68	398.06	646.15	124.11	465.43	722.22	115.25	396.69	534.16	129.38	406.25	513.68	253.96	322.39	358.09	110.73	389.41	268.35	111.44	319.4	283.89	117.48	386.3	344.97	106.87	345.74	105.51	103.04	375.07	102.94	185.69	295	76.142	150.43	311.54	42.165	179.49	301.59	48.758	116.57	475.16	38.525	67.427	503	44.06	180.58	562.55	59.172	126.95	350.17	1524.5	321.49	328.93	1243	334.54
608	2.5292	563.75	1246.9	330.3	418.64	1481.8	497.88	412.82	1495.9	162.79	442.43	1805.6	344.14	534.55	1021.5	434.84	542.06	1025.9	201.66	338.16	1051.5	354.57	344.35	1059.6	261.77	452.7	924.54	501.93	437.94	928.65	136.08	438.84	1091.9	478.64	454.56	1110.6	175.75	321.84	1017.6	305.03	399.28	737.41	515.18	458.75	622.82	500.05	391.08	646.6	509.5	476.02	716.8	508.62	409.46	529.98	499.61	389.31	518.43	373.28	326.98	355.59	525.44	389.88	291.7	518.23	327.07	277.98	525.45	392.2	368.72	518.4	335.33	102.95	509.29	367.94	112.28	434.16	291.28	66.185	464.02	305.54	39.47	438.25	294.9	42.528	499.44	NaN	NaN	NaN	491.56	44.259	440.63	554.1	59.303	490.92	394.91	737.6	121.55	465.57	633.17	125.66	398.04	646.15	124.1	465.42	722.22	115.23	396.67	534.16	129.36	406.24	513.68	253.95	322.38	358.09	110.72	389.41	268.35	111.44	319.39	283.89	117.47	386.29	344.97	106.86	345.73	105.51	103.04	375.07	102.94	185.69	295	76.145	150.43	311.53	42.162	179.49	301.59	48.757	116.57	475.16	38.524	67.425	503	44.062	180.58	562.55	59.172	126.95	350.18	1524.5	321.5	328.94	1243	334.54
609	2.5333	563.76	1246.9	330.31	418.65	1481.8	497.89	412.82	1495.8	162.79	442.49	1805.6	344.14	534.56	1021.4	434.82	542.06	1025.9	201.65	338.16	1051.5	354.55	344.35	1059.6	261.75	452.69	924.54	501.91	437.92	928.65	136.06	438.85	1091.9	478.62	454.57	1110.7	175.74	321.83	1017.6	305.01	399.27	737.41	515.17	458.74	622.82	500.04	391.07	646.6	509.49	476.01	716.8	508.61	409.45	529.98	499.6	389.29	518.43	373.27	326.98	355.59	525.44	389.87	291.7	518.23	327.06	277.98	525.44	392.2	368.72	518.4	335.33	102.95	509.28	367.94	112.28	434.16	291.28	66.186	464.02	305.54	39.471	438.25	294.9	42.528	499.43	NaN	NaN	NaN	491.56	44.259	440.63	554.1	59.302	490.92	394.89	737.61	121.54	465.56	633.17	125.65	398.02	646.15	124.08	465.4	722.23	115.21	396.66	534.16	129.35	406.23	513.68	253.94	322.37	358.09	110.71	389.4	268.35	111.43	319.39	283.88	117.46	386.28	344.98	106.85	345.73	105.51	103.03	375.07	102.94	185.69	295.01	76.148	150.42	311.51	42.16	179.49	301.59	48.757	116.57	475.16	38.523	67.424	503	44.063	180.58	562.55	59.173	126.95	350.18	1524.5	321.5	328.94	1243	334.54
610	2.5375	563.77	1246.9	330.33	418.65	1481.8	497.89	412.83	1495.8	162.79	442.56	1805.6	344.13	534.56	1021.4	434.79	542.05	1025.9	201.64	338.15	1051.5	354.54	344.34	1059.6	261.74	452.69	924.53	501.89	437.91	928.66	136.04	438.86	1091.9	478.59	454.58	1110.7	175.73	321.83	1017.6	304.99	399.26	737.41	515.15	458.73	622.82	500.02	391.06	646.59	509.47	476	716.8	508.59	409.44	529.98	499.59	389.28	518.43	373.25	326.97	355.59	525.43	389.87	291.7	518.22	327.06	277.98	525.44	392.19	368.72	518.39	335.33	102.95	509.28	367.94	112.28	434.15	291.28	66.186	464.02	305.54	39.472	438.25	294.9	42.528	499.43	NaN	NaN	NaN	491.56	44.26	440.63	554.1	59.301	490.92	394.88	737.61	121.53	465.54	633.17	125.63	398.01	646.16	124.07	465.38	722.23	115.19	396.64	534.16	129.34	406.22	513.68	253.92	322.36	358.08	110.69	389.4	268.35	111.42	319.38	283.88	117.45	386.27	344.98	106.84	345.73	105.51	103.03	375.07	102.94	185.68	295.01	76.151	150.42	311.5	42.157	179.49	301.59	48.756	116.57	475.16	38.522	67.423	503	44.064	180.58	562.55	59.173	126.95	350.19	1524.5	321.5	328.95	1243	334.54
